# Blender v2.79 (sub 0) OBJ File: 'bone.blend'
# www.blender.org
v 0.025220 -0.034712 0.000000
v -0.011279 0.034711 -0.022557
v 0.029527 -0.021453 -0.022557
v 0.006970 0.021453 -0.036498
v -0.025220 0.034712 0.000000
v -0.000000 -0.042906 0.000000
v -0.036498 0.000000 -0.022557
v 0.022557 0.000000 -0.036498
v -0.018249 -0.013258 -0.036498
v -0.025220 -0.034712 0.000000
v -0.040806 0.013258 0.000000
v -0.006970 0.021453 0.036498
v 0.018249 0.013258 0.036498
v 0.011279 0.034711 0.022557
v 0.036498 0.000000 0.022557
v 0.018249 -0.013258 0.036498
v -0.022557 0.000000 0.036498
v -0.029527 0.021453 0.022557
v -0.006970 -0.021453 0.036498
v -0.029527 -0.021453 0.022557
v 0.011279 -0.034711 0.022557
v 0.040806 0.013258 0.000000
v 0.040806 -0.013258 0.000000
v -0.000000 0.042906 0.000000
v 0.025220 0.034712 0.000000
v -0.040806 -0.013258 0.000000
v 0.029527 0.021453 -0.022557
v -0.011279 -0.034711 -0.022557
v -0.018249 0.013258 -0.036498
v 0.006970 -0.021453 -0.036498
v -0.000000 0.000000 -0.042906
v 0.038376 0.000000 -0.019188
v 0.011859 -0.036498 -0.019188
v -0.031047 -0.022557 -0.019188
v -0.031047 0.022557 -0.019188
v 0.011859 0.036498 -0.019188
v 0.031047 -0.022557 0.019188
v -0.011859 -0.036498 0.019188
v -0.038376 0.000000 0.019188
v -0.011859 0.036498 0.019188
v 0.031047 0.022557 0.019188
v -0.000000 0.000000 0.042906
v 0.000000 0.000000 0.000000
v 0.084286 -0.084286 -0.111050
v -0.084286 -0.084286 -0.111050
v 0.084286 0.084286 -0.111050
v -0.084286 0.084286 -0.111050
v 0.000000 0.000000 -1.000000
vt 0.000000 0.000000
vt 1.000000 1.000000
vt 1.000000 0.000000
vt 0.000000 0.000000
vt 1.000000 1.000000
vt 1.000000 0.000000
vt 0.000000 0.000000
vt 1.000000 1.000000
vt 0.000000 0.000000
vt 0.000000 0.000000
vt 1.000000 1.000000
vt 1.000000 0.000000
vt 1.000000 0.000000
vt 1.000000 0.000000
vt 0.000000 0.000000
vt 0.000000 0.000000
vt 0.000000 0.000000
vt 0.000000 0.000000
vt 0.000000 0.000000
vt 0.000000 0.000000
vt 0.000000 0.000000
vt 0.000000 0.000000
vt 0.000000 0.000000
vt 0.000000 0.000000
vt 0.000000 0.000000
vt 0.000000 0.000000
vt 0.000000 0.000000
vt 0.000000 0.000000
vt 0.000000 0.000000
vt 0.000000 0.000000
vt 0.000000 0.000000
vt 0.000000 0.000000
vt 0.000000 0.000000
vt 0.000000 0.000000
vt 0.000000 0.000000
vt 0.000000 0.000000
vt 0.000000 0.000000
vt 0.000000 0.000000
vt 0.000000 0.000000
vt 0.000000 0.000000
vt 0.000000 0.000000
vt 0.000000 0.000000
vt 0.000000 0.000000
vt 0.000000 0.000000
vt 0.000000 0.000000
vt 0.000000 0.000000
vt 0.000000 0.000000
vt 0.000000 0.000000
vt 0.000000 0.000000
vt 0.000000 0.000000
vt 0.000000 0.000000
vt 0.000000 0.000000
vt 0.000000 0.000000
vt 0.000000 0.000000
vt 0.000000 0.000000
vt 0.000000 0.000000
vn 0.7966 0.0000 0.6046
vn -0.7966 0.0000 0.6046
vn 0.0000 0.7966 0.6046
vn 0.0000 -0.7966 0.6046
vn 0.9955 0.0000 -0.0944
vn 0.0000 -0.9955 -0.0944
vn 0.0000 0.9955 -0.0944
vn -0.9955 0.0000 -0.0944
vn -0.5878 -0.8090 0.0000
vn -0.9510 -0.3090 0.0000
vn -0.7236 -0.5257 -0.4472
vn -0.2629 -0.8090 -0.5257
vn 0.1625 -0.5000 -0.8506
vn -0.4253 -0.3090 -0.8506
vn -0.4253 0.3090 -0.8506
vn -0.2629 0.8090 -0.5257
vn 0.1625 0.5000 -0.8506
vn 0.0000 -1.0000 0.0000
vn 0.0000 1.0000 0.0000
vn 0.2764 0.8506 -0.4472
vn 0.5878 -0.8090 0.0000
vn 0.2764 -0.8506 -0.4472
vn 0.6882 -0.5000 -0.5257
vn 0.5878 0.8090 0.0000
vn 0.9510 -0.3090 0.0000
vn 0.8944 0.0000 -0.4472
vn 0.2629 0.8090 0.5257
vn 0.7236 0.5257 0.4472
vn 0.8506 0.0000 0.5257
vn 0.4253 -0.3090 0.8506
vn 0.7236 -0.5257 0.4472
vn -0.6882 -0.5000 0.5257
vn -0.8944 0.0000 0.4472
vn 0.4253 0.3090 0.8506
vn 0.0000 0.0000 1.0000
vn 0.9510 0.3090 0.0000
vn 0.2629 -0.8090 0.5257
vn -0.2764 -0.8506 0.4472
vn -0.1625 -0.5000 0.8506
vn -0.5257 0.0000 0.8506
vn 0.6882 0.5000 -0.5257
vn -0.8506 0.0000 -0.5257
vn -0.6882 0.5000 0.5257
vn -0.2764 0.8506 0.4472
vn -0.5878 0.8090 0.0000
vn 0.5257 0.0000 -0.8506
vn -0.1625 0.5000 0.8506
vn 0.0000 0.0000 -1.0000
vn -0.9510 0.3090 0.0000
vn -0.7236 0.5257 -0.4472
s off
f 43/1/1 44/2/1 46/3/1
f 47/4/2 45/5/2 43/6/2
f 46/7/3 47/8/3 43/6/3
f 45/9/4 44/2/4 43/6/4
f 44/10/5 48/11/5 46/3/5
f 45/9/6 48/11/6 44/12/6
f 46/7/7 48/11/7 47/13/7
f 47/4/8 48/11/8 45/14/8
f 10/15/9 26/16/10 34/17/11
f 10/15/9 34/17/11 28/18/12
f 30/19/13 28/18/12 9/20/14
f 29/21/15 2/22/16 4/23/17
f 6/24/18 10/15/9 28/18/12
f 24/25/19 36/26/20 2/22/16
f 1/27/21 33/28/22 3/29/23
f 24/25/19 25/30/24 36/26/20
f 23/31/25 3/29/23 32/32/26
f 14/33/27 41/34/28 25/30/24
f 15/35/29 16/36/30 37/37/31
f 20/38/32 39/39/33 26/16/10
f 13/40/34 42/41/35 16/36/30
f 22/42/36 23/31/25 32/32/26
f 21/43/37 38/44/38 6/24/18
f 19/45/39 17/46/40 20/38/32
f 25/30/24 22/42/36 27/47/41
f 13/40/34 41/34/28 14/33/27
f 1/27/21 21/43/37 6/24/18
f 9/20/14 7/48/42 29/21/15
f 18/49/43 40/50/44 5/51/45
f 4/23/17 27/47/41 8/52/46
f 19/45/39 38/44/38 21/43/37
f 12/53/47 14/33/27 40/50/44
f 4/23/17 8/52/46 31/54/48
f 15/35/29 37/37/31 23/31/25
f 26/16/10 11/55/49 7/48/42
f 37/37/31 1/27/21 23/31/25
f 41/34/28 13/40/34 15/35/29
f 35/56/50 2/22/16 29/21/15
f 38/44/38 10/15/9 6/24/18
f 8/52/46 3/29/23 30/19/13
f 40/50/44 24/25/19 5/51/45
f 16/36/30 21/43/37 37/37/31
f 40/50/44 14/33/27 24/25/19
f 8/52/46 30/19/13 31/54/48
f 38/44/38 20/38/32 10/15/9
f 33/28/22 28/18/12 30/19/13
f 41/34/28 15/35/29 22/42/36
f 17/46/40 18/49/43 39/39/33
f 42/41/35 17/46/40 19/45/39
f 28/18/12 34/17/11 9/20/14
f 2/22/16 36/26/20 4/23/17
f 30/19/13 9/20/14 31/54/48
f 29/21/15 4/23/17 31/54/48
f 6/24/18 28/18/12 33/28/22
f 5/51/45 24/25/19 2/22/16
f 5/51/45 2/22/16 35/56/50
f 24/25/19 14/33/27 25/30/24
f 23/31/25 1/27/21 3/29/23
f 10/15/9 20/38/32 26/16/10
f 15/35/29 13/40/34 16/36/30
f 17/46/40 39/39/33 20/38/32
f 22/42/36 32/32/26 27/47/41
f 19/45/39 20/38/32 38/44/38
f 25/30/24 27/47/41 36/26/20
f 7/48/42 35/56/50 29/21/15
f 1/27/21 6/24/18 33/28/22
f 9/20/14 29/21/15 31/54/48
f 11/55/49 18/49/43 5/51/45
f 12/53/47 13/40/34 14/33/27
f 11/55/49 5/51/45 35/56/50
f 27/47/41 32/32/26 8/52/46
f 11/55/49 35/56/50 7/48/42
f 22/42/36 15/35/29 23/31/25
f 26/16/10 7/48/42 34/17/11
f 34/17/11 7/48/42 9/20/14
f 42/41/35 13/40/34 12/53/47
f 36/26/20 27/47/41 4/23/17
f 39/39/33 11/55/49 26/16/10
f 16/36/30 19/45/39 21/43/37
f 41/34/28 22/42/36 25/30/24
f 3/29/23 33/28/22 30/19/13
f 37/37/31 21/43/37 1/27/21
f 12/53/47 40/50/44 18/49/43
f 39/39/33 18/49/43 11/55/49
f 17/46/40 12/53/47 18/49/43
f 42/41/35 19/45/39 16/36/30
f 32/32/26 3/29/23 8/52/46
f 42/41/35 12/53/47 17/46/40
